<svg width="1024" height="1024" viewBox="0 0 1024 1024" fill="none" xmlns="http://www.w3.org/2000/svg">
<path fill-rule="evenodd" clip-rule="evenodd" d="M392.226 336.415C416.074 289.555 456.046 251.656 505.798 230.859C382.999 232.236 283.877 332.187 283.877 455.284C286.033 545.419 258.58 615.801 244.584 639.724C235.298 656.184 230 675.191 230 695.434C230 755.014 275.891 803.879 334.262 808.623C337.339 808.873 340.45 809 343.592 809C542.078 809 723.986 648.643 732.542 468.507C721.354 453.829 708.494 440.423 694.2 428.599C690.095 425.203 685.871 421.937 681.535 418.81C676.311 414.489 671.283 410.414 666.459 406.506C624.694 372.665 598.352 351.321 594.49 290.762C590.073 342.841 567.369 360.298 532.377 387.202C525.904 392.18 519.01 397.48 511.733 403.383C507.677 406.251 503.724 409.247 499.88 412.366C450.712 452.252 419.344 512.139 416.791 577.89C391.847 546.631 374.943 508.326 369.644 465.746C369.309 463.058 369.024 460.376 368.787 457.7C367.405 442.101 367.663 426.709 369.424 411.702C372.549 385.066 380.407 359.64 392.226 336.415Z" fill="#EDA000"/>
<path d="M594.482 214.025C584.712 213.956 574.89 213.945 564.933 215.182C544.089 217.772 524.27 223.138 505.798 230.859C506.653 230.85 507.51 230.844 508.368 230.844C632.35 230.844 732.857 331.33 732.857 455.284C732.857 459.702 732.751 464.111 732.542 468.507C762.454 507.749 780.421 556.086 781.928 607.609C809.097 574.221 827.686 533.166 833.827 487.391C834.215 484.502 834.55 481.618 834.832 478.739C836.48 461.964 836.361 445.396 834.62 429.225C831.53 400.523 823.334 373.076 810.852 347.958C776.315 278.459 708.971 226.785 626.211 215.699C615.531 214.268 604.982 214.176 594.49 214.15L594.482 214.025Z" fill="#EDA000"/>
</svg>
